<svg id="Layer_1" data-name="Layer 1" xmlns="http://www.w3.org/2000/svg" xmlns:xlink="http://www.w3.org/1999/xlink" viewBox="0 0 32 32"><defs><style>.cls-1{fill:url(#linear-gradient);}.cls-2{fill:url(#linear-gradient-2);}.cls-3{fill-opacity:0.75;fill:url(#radial-gradient);}.cls-4{fill:url(#linear-gradient-3);}.cls-5{fill:url(#linear-gradient-4);}.cls-6{fill:url(#linear-gradient-5);}.cls-7{fill:url(#linear-gradient-6);}.cls-8{fill:url(#radial-gradient-2);}.cls-9{fill:url(#linear-gradient-7);}.cls-10{fill:url(#linear-gradient-8);}.cls-11{fill:url(#radial-gradient-3);}.cls-12{fill:url(#linear-gradient-9);}.cls-13{fill:url(#radial-gradient-4);}.cls-14{fill:url(#radial-gradient-5);}.cls-15{fill:url(#linear-gradient-10);}.cls-16{fill:url(#radial-gradient-6);}.cls-17{fill:url(#radial-gradient-7);}.cls-18{fill:url(#linear-gradient-11);}.cls-19{fill:url(#radial-gradient-8);}.cls-20{fill:url(#linear-gradient-12);}.cls-21{fill:url(#radial-gradient-9);}.cls-22{fill:url(#radial-gradient-10);}.cls-23{fill:url(#radial-gradient-11);}.cls-24{fill:url(#radial-gradient-12);}.cls-25{fill:url(#radial-gradient-13);}.cls-26{fill:url(#radial-gradient-14);}.cls-27{filter:url(#b);}.cls-28{fill:url(#linear-gradient-13);}.cls-29{fill:url(#radial-gradient-15);}.cls-30{fill:url(#radial-gradient-16);}.cls-31{fill:url(#linear-gradient-14);}.cls-32{fill:url(#radial-gradient-17);}.cls-33{fill:url(#radial-gradient-18);}.cls-34{fill:url(#linear-gradient-15);}.cls-35{fill:#ed6c32;}.cls-36{fill:url(#radial-gradient-19);}.cls-37{fill:url(#linear-gradient-16);}.cls-38{fill:url(#radial-gradient-20);}.cls-39{filter:url(#c);}.cls-40{fill:url(#radial-gradient-21);}.cls-41{fill:#3ddb85;}.cls-42{fill:none;}</style><linearGradient id="linear-gradient" x1="13.88" y1="4.48" x2="15.71" y2="10.92" gradientTransform="matrix(1, 0, 0, -1, 0, 34)" gradientUnits="userSpaceOnUse"><stop offset="0" stop-color="#e46d33"/><stop offset="1" stop-color="#db592a"/></linearGradient><linearGradient id="linear-gradient-2" x1="17.27" y1="7.74" x2="8.33" y2="7.74" gradientTransform="matrix(1, 0, 0, -1, 0, 34)" gradientUnits="userSpaceOnUse"><stop offset="0" stop-color="#f67f41"/><stop offset="1" stop-color="#f67f41" stop-opacity="0"/></linearGradient><radialGradient id="radial-gradient" cx="-599.21" cy="1621.42" r="1" gradientTransform="matrix(-4.75, 0, 0, 0.45, -2830.34, -705.25)" gradientUnits="userSpaceOnUse"><stop offset="0" stop-color="#ffa56b"/><stop offset="1" stop-color="#ffa56b" stop-opacity="0"/></radialGradient><linearGradient id="linear-gradient-3" x1="13.81" y1="3.5" x2="13.81" y2="4.8" gradientTransform="matrix(1, 0, 0, -1, 0, 34)" gradientUnits="userSpaceOnUse"><stop offset="0" stop-color="#f15cc7"/><stop offset="0.83" stop-color="#f15cc7" stop-opacity="0"/></linearGradient><linearGradient id="linear-gradient-4" x1="13.81" y1="7.99" x2="13.81" y2="6.33" gradientTransform="matrix(1, 0, 0, -1, 0, 34)" gradientUnits="userSpaceOnUse"><stop offset="0" stop-color="#ea582f"/><stop offset="1" stop-color="#ea582f" stop-opacity="0"/></linearGradient><linearGradient id="linear-gradient-5" x1="18.4" y1="4.48" x2="20.21" y2="10.93" xlink:href="#linear-gradient"/><linearGradient id="linear-gradient-6" x1="21.8" y1="7.74" x2="12.81" y2="7.74" xlink:href="#linear-gradient-2"/><radialGradient id="radial-gradient-2" cx="-833.16" cy="547.21" r="1" gradientTransform="matrix(-1.52, -1.4, -1.13, 1.24, -628.62, -1810.59)" xlink:href="#radial-gradient"/><linearGradient id="linear-gradient-7" x1="18.33" y1="3.5" x2="18.33" y2="4.8" xlink:href="#linear-gradient-3"/><linearGradient id="linear-gradient-8" x1="18.33" y1="7.99" x2="18.33" y2="6.33" xlink:href="#linear-gradient-4"/><radialGradient id="radial-gradient-3" cx="-484.63" cy="412.19" r="1" gradientTransform="matrix(9.99, -6.9, -3.35, -4.85, 6224.42, -1323.79)" gradientUnits="userSpaceOnUse"><stop offset="0" stop-color="#e8b744"/><stop offset="1" stop-color="#b96d1e"/></radialGradient><linearGradient id="linear-gradient-9" x1="12.26" y1="20.2" x2="4.33" y2="15.09" gradientTransform="matrix(1, 0, 0, -1, 0, 34)" gradientUnits="userSpaceOnUse"><stop offset="0" stop-color="#cd7c10"/><stop offset="1" stop-color="#cd7c10" stop-opacity="0"/></linearGradient><radialGradient id="radial-gradient-4" cx="-601.22" cy="576.64" r="1" gradientTransform="matrix(-5.63, -2.31, -2.15, 5.23, -2132.18, -4387.87)" gradientUnits="userSpaceOnUse"><stop offset="0" stop-color="#e7756b"/><stop offset="1" stop-color="#ea8980" stop-opacity="0"/><stop offset="1" stop-color="#e7756b" stop-opacity="0"/></radialGradient><radialGradient id="radial-gradient-5" cx="-477.56" cy="402.98" r="1" gradientTransform="matrix(6.19, -4.21, -3.07, -4.51, 4191.49, -172.87)" gradientUnits="userSpaceOnUse"><stop offset="0" stop-color="#f9c958"/><stop offset="0.81" stop-color="#f9c958" stop-opacity="0"/></radialGradient><linearGradient id="linear-gradient-10" x1="32.04" y1="16.75" x2="20.69" y2="18.42" gradientTransform="matrix(1, 0, 0, -1, 0, 34)" gradientUnits="userSpaceOnUse"><stop offset="0" stop-color="#f8ec1d"/><stop offset="1" stop-color="#f5891f"/></linearGradient><radialGradient id="radial-gradient-6" cx="-533.92" cy="527.71" r="1" gradientTransform="matrix(-12.69, -12.75, -0.94, 0.94, -6239.84, -7278.12)" gradientUnits="userSpaceOnUse"><stop offset="0" stop-color="#f8ec1d"/><stop offset="1" stop-color="#f8ec1d" stop-opacity="0"/></radialGradient><radialGradient id="radial-gradient-7" cx="-651.25" cy="639.62" r="1" gradientTransform="matrix(-3.81, -1.81, -0.91, 1.91, -1869.65, -2385.65)" gradientUnits="userSpaceOnUse"><stop offset="0" stop-color="#f8ec1d"/><stop offset="0.51" stop-color="#f8ec1d" stop-opacity="0"/></radialGradient><linearGradient id="linear-gradient-11" x1="21.23" y1="17.1" x2="26.13" y2="18.21" gradientTransform="matrix(1, 0, 0, -1, 0, 34)" gradientUnits="userSpaceOnUse"><stop offset="0" stop-color="#d39344"/><stop offset="0.84" stop-color="#df9d4c" stop-opacity="0"/></linearGradient><radialGradient id="radial-gradient-8" cx="-439.62" cy="348.44" r="1" gradientTransform="matrix(3.53, -1.78, -1.66, -3.29, 2154.15, 383.52)" xlink:href="#radial-gradient-4"/><linearGradient id="linear-gradient-12" x1="19.2" y1="30.31" x2="13.43" y2="3.8" xlink:href="#linear-gradient-10"/><radialGradient id="radial-gradient-9" cx="-478.67" cy="480.8" r="1" gradientTransform="matrix(14.06, -6.25, -5.51, -12.39, 9381.44, 2989.06)" gradientUnits="userSpaceOnUse"><stop offset="0" stop-color="#f5891f"/><stop offset="1" stop-color="#f5891f" stop-opacity="0"/></radialGradient><radialGradient id="radial-gradient-10" cx="-455.71" cy="505.57" r="1" gradientTransform="matrix(15.06, 4.69, 4.13, -13.27, 4776.9, 8853.78)" xlink:href="#radial-gradient-9"/><radialGradient id="radial-gradient-11" cx="-468.92" cy="567.29" r="1" gradientTransform="matrix(0, 18.98, 12.93, 0, -7317.56, 8910.71)" gradientUnits="userSpaceOnUse"><stop offset="0.91" stop-color="#e7756b" stop-opacity="0"/><stop offset="1" stop-color="#e7756b"/></radialGradient><radialGradient id="radial-gradient-12" cx="-543.59" cy="474" r="1" gradientTransform="matrix(0, -10.19, -9, 0, 4282.08, -5509.11)" xlink:href="#radial-gradient-4"/><radialGradient id="radial-gradient-13" cx="-363" cy="614.13" r="1" gradientTransform="matrix(0, 3.75, 5.81, 0, -3554.77, 1376.07)" gradientUnits="userSpaceOnUse"><stop offset="0" stop-color="#ffb14f"/><stop offset="1" stop-color="#ffb14f" stop-opacity="0"/></radialGradient><radialGradient id="radial-gradient-14" cx="-517.8" cy="528.43" r="1" gradientTransform="matrix(-21.23, -22.16, -19.07, 18.27, -893.09, -21101.49)" gradientUnits="userSpaceOnUse"><stop offset="0.72" stop-color="#bba553" stop-opacity="0"/><stop offset="1" stop-color="#bba553"/></radialGradient><filter id="b" x="13.25" y="4.36" width="10.35" height="10.83" name="b"><feFlood result="BackgroundImageFix" flood-opacity="0"/><feGaussianBlur result="effect1_foregroundBlur_28327_4807" stdDeviation="0.75"/></filter><linearGradient id="linear-gradient-13" x1="-407.29" y1="-178.1" x2="-413.96" y2="-177.5" gradientTransform="matrix(1, 0, 0, -1, 429.62, -167.98)" gradientUnits="userSpaceOnUse"><stop offset="0" stop-color="#fff558"/><stop offset="1" stop-color="#fff558" stop-opacity="0"/></linearGradient><radialGradient id="radial-gradient-15" cx="-334.36" cy="1646.2" r="1" gradientTransform="matrix(-0.41, 0.56, 0.5, 0.36, -941.41, -397.81)" gradientUnits="userSpaceOnUse"><stop offset="0.01" stop-color="#433437"/><stop offset="1" stop-color="#3b2838"/></radialGradient><radialGradient id="radial-gradient-16" cx="-584.8" cy="2740.28" r="1" gradientTransform="matrix(-0.27, 0.24, 0.21, 0.23, -719.19, -488.35)" gradientUnits="userSpaceOnUse"><stop offset="0" stop-color="#5c5051"/><stop offset="1" stop-color="#5c5051" stop-opacity="0"/></radialGradient><linearGradient id="linear-gradient-14" x1="19.58" y1="23.65" x2="19.23" y2="23.86" gradientTransform="matrix(1, 0, 0, -1, 0, 34)" gradientUnits="userSpaceOnUse"><stop offset="0" stop-color="#5c5051" stop-opacity="0"/><stop offset="1" stop-color="#5c5051"/></linearGradient><radialGradient id="radial-gradient-17" cx="-334.36" cy="1646.2" r="1" gradientTransform="matrix(-0.41, 0.56, 0.5, 0.36, -948.9, -397.81)" xlink:href="#radial-gradient-15"/><radialGradient id="radial-gradient-18" cx="-584.8" cy="2740.28" r="1" gradientTransform="matrix(-0.27, 0.24, 0.21, 0.23, -726.68, -488.35)" xlink:href="#radial-gradient-16"/><linearGradient id="linear-gradient-15" x1="12.09" y1="23.65" x2="11.74" y2="23.86" xlink:href="#linear-gradient-14"/><radialGradient id="radial-gradient-19" cx="-905.98" cy="246.67" r="1" gradientTransform="matrix(0, -1.2, -1.75, 0, 449.45, -1079.34)" gradientUnits="userSpaceOnUse"><stop offset="0" stop-color="#ff8e64"/><stop offset="1" stop-color="#ff8e64" stop-opacity="0"/></radialGradient><linearGradient id="linear-gradient-16" x1="16.08" y1="21.9" x2="16.08" y2="22.34" gradientTransform="matrix(1, 0, 0, -1, 0, 34)" gradientUnits="userSpaceOnUse"><stop offset="0" stop-color="#c1411b"/><stop offset="0.79" stop-color="#ea6038" stop-opacity="0"/></linearGradient><radialGradient id="radial-gradient-20" cx="-756.75" cy="-1216.29" r="1" gradientTransform="matrix(0.26, -1.52, -0.32, -0.05, -181.17, -1208.14)" gradientUnits="userSpaceOnUse"><stop offset="0.17" stop-color="#ff8e64"/><stop offset="1" stop-color="#ff8e64" stop-opacity="0"/></radialGradient><filter id="c" x="14.52" y="11.84" width="10.93" height="10.34" name="c"><feFlood result="BackgroundImageFix" flood-opacity="0"/><feGaussianBlur result="effect1_foregroundBlur_28327_4807" stdDeviation="0.75"/></filter><radialGradient id="radial-gradient-21" cx="-440.71" cy="573.76" r="1" gradientTransform="matrix(3.62, 10.94, 6.67, -2.21, -2210.28, 6098.37)" gradientUnits="userSpaceOnUse"><stop offset="0" stop-color="#ffdf58"/><stop offset="0.97" stop-color="#ffdf58" stop-opacity="0"/></radialGradient></defs><path class="cls-1" d="M16.06,28.51H14.34l0-6h-1.5l0,6H11.55a1.5,1.5,0,0,0-1.47,1.21.25.25,0,0,0,.25.29h7a.25.25,0,0,0,.25-.29A1.51,1.51,0,0,0,16.06,28.51Z"/><path class="cls-2" d="M16.06,28.51H14.34l0-6h-1.5l0,6H11.55a1.5,1.5,0,0,0-1.47,1.21.25.25,0,0,0,.25.29h7a.25.25,0,0,0,.25-.29A1.51,1.51,0,0,0,16.06,28.51Z"/><path class="cls-3" d="M16.06,28.51H14.34l0-6h-1.5l0,6H11.55a1.5,1.5,0,0,0-1.47,1.21.25.25,0,0,0,.25.29h7a.25.25,0,0,0,.25-.29A1.51,1.51,0,0,0,16.06,28.51Z"/><path class="cls-4" d="M16.06,28.51H14.34l0-6h-1.5l0,6H11.55a1.5,1.5,0,0,0-1.47,1.21.25.25,0,0,0,.25.29h7a.25.25,0,0,0,.25-.29A1.51,1.51,0,0,0,16.06,28.51Z"/><path class="cls-5" d="M16.06,28.51H14.34l0-6h-1.5l0,6H11.55a1.5,1.5,0,0,0-1.47,1.21.25.25,0,0,0,.25.29h7a.25.25,0,0,0,.25-.29A1.51,1.51,0,0,0,16.06,28.51Z"/><path class="cls-6" d="M20.61,28.51H19.34l0-6h-1.5l0,6H16a1.5,1.5,0,0,0-1.47,1.21.25.25,0,0,0,.24.29h7a.25.25,0,0,0,.25-.29A1.49,1.49,0,0,0,20.61,28.51Z"/><path class="cls-7" d="M20.61,28.51H19.34l0-6h-1.5l0,6H16a1.5,1.5,0,0,0-1.47,1.21.25.25,0,0,0,.24.29h7a.25.25,0,0,0,.25-.29A1.49,1.49,0,0,0,20.61,28.51Z"/><path class="cls-8" d="M20.61,28.51H19.34l0-6h-1.5l0,6H16a1.5,1.5,0,0,0-1.47,1.21.25.25,0,0,0,.24.29h7a.25.25,0,0,0,.25-.29A1.49,1.49,0,0,0,20.61,28.51Z"/><path class="cls-9" d="M20.61,28.51H19.34l0-6h-1.5l0,6H16a1.5,1.5,0,0,0-1.47,1.21.25.25,0,0,0,.24.29h7a.25.25,0,0,0,.25-.29A1.49,1.49,0,0,0,20.61,28.51Z"/><path class="cls-10" d="M20.61,28.51H19.34l0-6h-1.5l0,6H16a1.5,1.5,0,0,0-1.47,1.21.25.25,0,0,0,.24.29h7a.25.25,0,0,0,.25-.29A1.49,1.49,0,0,0,20.61,28.51Z"/><path class="cls-11" d="M10.54,11A6.62,6.62,0,0,1,5,21.16a6.6,6.6,0,0,1-2.23-.36,1,1,0,0,1-.39-1.65Z"/><path class="cls-12" d="M10.54,11A6.62,6.62,0,0,1,5,21.16a6.6,6.6,0,0,1-2.23-.36,1,1,0,0,1-.39-1.65Z"/><path class="cls-13" d="M10.54,11A6.62,6.62,0,0,1,5,21.16a6.6,6.6,0,0,1-2.23-.36,1,1,0,0,1-.39-1.65Z"/><path class="cls-14" d="M10.54,11A6.62,6.62,0,0,1,5,21.16a6.6,6.6,0,0,1-2.23-.36,1,1,0,0,1-.39-1.65Z"/><path class="cls-15" d="M21.63,11a6.63,6.63,0,0,0,7.76,9.8,1,1,0,0,0,.39-1.65Z"/><path class="cls-16" d="M21.63,11a6.63,6.63,0,0,0,7.76,9.8,1,1,0,0,0,.39-1.65Z"/><path class="cls-17" d="M21.63,11a6.63,6.63,0,0,0,7.76,9.8,1,1,0,0,0,.39-1.65Z"/><path class="cls-18" d="M21.63,11a6.63,6.63,0,0,0,7.76,9.8,1,1,0,0,0,.39-1.65Z"/><path class="cls-19" d="M21.63,11a6.63,6.63,0,0,0,7.76,9.8,1,1,0,0,0,.39-1.65Z"/><path class="cls-20" d="M23.28,12.62a1,1,0,0,1-.2-.61,7,7,0,0,0-6.35-7c-.21,0-.43,0-.65,0s-.44,0-.65,0a7,7,0,0,0-6.35,7,1,1,0,0,1-.2.61,9,9,0,1,0,14.4,0Z"/><path class="cls-21" d="M23.28,12.62a1,1,0,0,1-.2-.61,7,7,0,0,0-6.35-7c-.21,0-.43,0-.65,0s-.44,0-.65,0a7,7,0,0,0-6.35,7,1,1,0,0,1-.2.61,9,9,0,1,0,14.4,0Z"/><path class="cls-22" d="M23.28,12.62a1,1,0,0,1-.2-.61,7,7,0,0,0-6.35-7c-.21,0-.43,0-.65,0s-.44,0-.65,0a7,7,0,0,0-6.35,7,1,1,0,0,1-.2.61,9,9,0,1,0,14.4,0Z"/><path class="cls-23" d="M23.28,12.62a1,1,0,0,1-.2-.61,7,7,0,0,0-6.35-7c-.21,0-.43,0-.65,0s-.44,0-.65,0a7,7,0,0,0-6.35,7,1,1,0,0,1-.2.61,9,9,0,1,0,14.4,0Z"/><path class="cls-24" d="M23.28,12.62a1,1,0,0,1-.2-.61,7,7,0,0,0-6.35-7c-.21,0-.43,0-.65,0s-.44,0-.65,0a7,7,0,0,0-6.35,7,1,1,0,0,1-.2.61,9,9,0,1,0,14.4,0Z"/><path class="cls-25" d="M23.28,12.62a1,1,0,0,1-.2-.61,7,7,0,0,0-6.35-7c-.21,0-.43,0-.65,0s-.44,0-.65,0a7,7,0,0,0-6.35,7,1,1,0,0,1-.2.61,9,9,0,1,0,14.4,0Z"/><path class="cls-26" d="M23.28,12.62a1,1,0,0,1-.2-.61,7,7,0,0,0-6.35-7c-.21,0-.43,0-.65,0s-.44,0-.65,0a7,7,0,0,0-6.35,7,1,1,0,0,1-.2.61,9,9,0,1,0,14.4,0Z"/><g class="cls-27"><ellipse class="cls-28" cx="18.43" cy="9.77" rx="3.1" ry="4.38" transform="translate(-2 14) rotate(-39.64)"/></g><path class="cls-29" d="M19.82,11a.5.5,0,0,0,.5-.5.5.5,0,0,0-.5-.5.51.51,0,0,0-.5.5A.5.5,0,0,0,19.82,11Z"/><path class="cls-30" d="M19.82,11a.5.5,0,0,0,.5-.5.5.5,0,0,0-.5-.5.51.51,0,0,0-.5.5A.5.5,0,0,0,19.82,11Z"/><path class="cls-31" d="M19.82,11a.5.5,0,0,0,.5-.5.5.5,0,0,0-.5-.5.51.51,0,0,0-.5.5A.5.5,0,0,0,19.82,11Z"/><path class="cls-32" d="M12.33,11a.5.5,0,0,0,.5-.5.5.5,0,0,0-.5-.5.51.51,0,0,0-.5.5A.5.5,0,0,0,12.33,11Z"/><path class="cls-33" d="M12.33,11a.5.5,0,0,0,.5-.5.5.5,0,0,0-.5-.5.51.51,0,0,0-.5.5A.5.5,0,0,0,12.33,11Z"/><path class="cls-34" d="M12.33,11a.5.5,0,0,0,.5-.5.5.5,0,0,0-.5-.5.51.51,0,0,0-.5.5A.5.5,0,0,0,12.33,11Z"/><path class="cls-35" d="M16.08,10a2,2,0,0,0-2,2h4A2,2,0,0,0,16.08,10Z"/><path class="cls-36" d="M16.08,10a2,2,0,0,0-2,2h4A2,2,0,0,0,16.08,10Z"/><path class="cls-37" d="M16.08,10a2,2,0,0,0-2,2h4A2,2,0,0,0,16.08,10Z"/><path class="cls-38" d="M16.08,10a2,2,0,0,0-2,2h4A2,2,0,0,0,16.08,10Z"/><g class="cls-39"><path class="cls-40" d="M22.19,13.48c-1.54,1.34-4.13,1.76-5.69,1.83a.5.5,0,0,0-.48.52A4.91,4.91,0,0,0,23.47,20a.46.46,0,0,0,.23-.31,8.39,8.39,0,0,0-.77-6.14A.48.48,0,0,0,22.19,13.48Z"/></g><g id="Layer_1-2" data-name="Layer 1"><path class="cls-41" d="M19,7.05a.52.52,0,1,1,.53-.52.52.52,0,0,1-.53.52m-5.78,0a.52.52,0,1,1,.53-.52.52.52,0,0,1-.53.52m6-3.15,1.05-1.81a.23.23,0,0,0-.08-.3.22.22,0,0,0-.3.08L18.77,3.71a6.45,6.45,0,0,0-2.69-.58,6.37,6.37,0,0,0-2.68.58L12.34,1.87a.22.22,0,1,0-.38.22L13,3.9A6.17,6.17,0,0,0,9.8,8.84H22.36a6.16,6.16,0,0,0-3.2-4.94"/><rect class="cls-42" x="4.91" y="-3.13" width="22.35" height="11.97"/></g></svg>